<?xml version="1.0" standalone="no"?><!DOCTYPE svg PUBLIC "-//W3C//DTD SVG 1.1//EN" "http://www.w3.org/Graphics/SVG/1.1/DTD/svg11.dtd"><svg class="icon" width="200px" height="200.00px" viewBox="0 0 1024 1024" version="1.1" xmlns="http://www.w3.org/2000/svg"><path fill="#d81e06" d="M540.501333 38.72l5.44 2.026667A161.536 161.536 0 0 1 650.752 192l-0.149333 10.944a399.872 399.872 0 0 1-21.056 117.546667l-1.322667 3.776h210.517333a123.733333 123.733333 0 0 1 122.026667 103.381333l9.472 56.704a502.186667 502.186667 0 0 1-29.098667 269.056l-36.885333 92.245333a209.066667 209.066667 0 0 1-194.133333 131.413334H271.04c-2.56 0-5.077333-0.256-7.509333-0.725334A38.4 38.4 0 0 1 256 977.066667H170.666667A123.733333 123.733333 0 0 1 46.933333 853.333333V469.333333A123.733333 123.733333 0 0 1 170.666667 345.6h86.4l25.749333-21.418667a290.24 290.24 0 0 0 99.754667-171.050666l5.034666-27.669334a114.538667 114.538667 0 0 1 152.896-86.741333zM217.6 422.4H170.666667a46.933333 46.933333 0 0 0-46.805334 43.584L123.733333 469.333333v384A46.933333 46.933333 0 0 0 170.666667 900.266667h46.933333V422.4zM466.24 129.706667l-1.28 2.986666c-0.789333 2.133333-1.386667 4.288-1.792 6.506667l-5.034667 27.669333-1.706666 8.746667a367.04 367.04 0 0 1-124.437334 207.573333l-22.570666 18.794667V900.266667h400.725333a132.266667 132.266667 0 0 0 122.794667-83.136l36.906666-92.245334a425.386667 425.386667 0 0 0 24.64-227.904l-9.450666-56.704a46.933333 46.933333 0 0 0-46.293334-39.210666H569.685333a38.4 38.4 0 0 1-34.346666-55.573334l4.501333-9.002666A323.072 323.072 0 0 0 573.973333 192a84.736 84.736 0 0 0-54.997333-79.36l-5.44-2.026667a37.738667 37.738667 0 0 0-47.296 19.093334z"  /></svg>