<?xml version="1.0" standalone="no"?><!DOCTYPE svg PUBLIC "-//W3C//DTD SVG 1.1//EN" "http://www.w3.org/Graphics/SVG/1.1/DTD/svg11.dtd"><svg class="icon" width="200px" height="200.00px" viewBox="0 0 1024 1024" version="1.1" xmlns="http://www.w3.org/2000/svg"><path fill="#000000" d="M885.498651 218.438398c-104.579485-99.922673-270.378999-98.474519-373.197982 4.344464l-9.952514 9.924119-9.938316-9.938317c-104.267138-104.267138-273.374691-104.281335-377.656027 0-107.958512 107.958512-113.467179 281.225961-12.635859 395.857344 45.545885 51.764431 89.586824 98.900447 132.108621 141.422243 78.115168 78.115168 151.289572 140.783352 219.622597 187.990355a76.177569 76.177569 0 0 0 48.513182 13.359937l4.642613 0.184569a76.197647 76.197647 0 0 0 43.870569-13.544506c68.347222-47.221201 141.507429-109.875188 219.622597-187.990355 42.521797-42.521797 86.548539-89.67201 132.094423-141.436441C1003.438073 503.994626 997.929406 330.755572 889.956696 222.782862l-4.458045-4.344464z m-46.653297 55.455806a217.148235 217.148235 0 0 1 9.483993 296.985292c-44.552053 50.628624-87.542371 96.657227-128.942557 138.057413-75.233056 75.233056-145.142013 135.118511-209.599095 179.64217a3.955451 3.955451 0 0 1-2.811124 0.681484 36.141176 36.141176 0 0 0-9.285227 0 3.895216 3.895216 0 0 1-2.754333-0.681484c-64.471279-44.537855-134.380236-104.423311-209.599095-179.64217-41.400187-41.400187-84.376307-87.414592-128.942558-138.057413A217.148235 217.148235 0 0 1 165.879352 273.894204c76.056516-76.056516 199.376826-76.056516 275.433343 0l35.508185 35.47979a36.141176 36.141176 0 0 0 51.111341 0L563.412011 273.894204c76.056516-76.056516 199.376826-76.056516 275.433343 0z"  /></svg>